<?xml version="1.0" encoding="UTF-8"?>
<svg width="80px" height="80px" viewBox="0 0 80 80" version="1.1" xmlns="http://www.w3.org/2000/svg" xmlns:xlink="http://www.w3.org/1999/xlink">
    <title>200219_PETS_20_002_PD_Logo_PDBlue</title>
    <defs>
        <polygon id="path-1" points="0.0101694915 0.160338983 79.839661 0.160338983 79.839661 79.9999658 0.0101694915 79.9999658"></polygon>
    </defs>
    <g id="Home" stroke="none" stroke-width="1" fill="none" fill-rule="evenodd">
        <g id="Artboard-Copy-25" transform="translate(-20.000000, -42.000000)">
            <g id="Header" transform="translate(0.000000, 30.000000)">
                <g id="200219_PETS_20_002_PD_Logo_PDBlue" transform="translate(20.000000, 12.000000)">
                    <mask id="mask-2" fill="white">
                        <use xlink:href="#path-1"></use>
                    </mask>
                    <g id="Clip-2"></g>
                    <rect id="Rectangle" fill="#FFFFFF" mask="url(#mask-2)" x="1" y="1" width="78" height="78" rx="39"></rect>
                    <path d="M65.3679661,60.8630508 L65.2164407,61.4472881 L65.7283051,61.8235593 L68.0384746,58.6805085 L66.8222034,57.7866102 L66.4238983,58.3284746 L66.8155932,58.8298305 L66.0237288,59.9074576 L64.8798305,59.0667797 L65.7735593,57.8505085 L65.1111864,57.3635593 L64.2172881,58.58 L63.2238983,57.8498305 L63.9542373,56.8562712 L64.5042373,57.0289831 L64.9025424,56.4869492 L63.7405085,55.6328814 L62.5013559,57.3188136 L61.5135593,58.7257627 L62.0254237,59.1018644 L62.5377966,58.7828814 L65.3679661,60.8630508 Z M62.9974576,63.4066102 L62.7708475,63.9661017 L63.2288136,64.4059322 L64.8079661,62.7625424 L64.35,62.3223729 L63.8,62.5711864 L61.2671186,60.1383051 L61.4938983,59.5788136 L61.0089831,59.1128814 L59.4569492,60.7822034 L59.9149153,61.2223729 L60.4649153,60.9733898 L62.9974576,63.4066102 Z M59.4581356,66.4645763 L59.1661017,66.9925424 L59.5677966,67.4845763 L62.4613559,65.1211864 L61.3742373,63.7898305 L60.8245763,64.2391525 L61.2171186,64.979661 L60.3316949,65.7028814 L58.1337288,63.0116949 L58.4257627,62.4835593 L58.0005085,61.9627119 L56.2588136,63.4332203 L56.660678,63.9252542 L57.2366102,63.7444068 L59.4581356,66.4645763 Z M54.7566102,65.3311864 L56.6305085,68.3015254 L56.2759322,68.79 L56.6149153,69.3272881 L58.5423729,68.1113559 L58.2035593,67.5742373 L57.61,67.6835593 L55.7362712,64.7132203 L56.090678,64.2245763 L55.7320339,63.6555932 L53.8242373,64.9032203 L54.1630508,65.4405085 L54.7566102,65.3311864 Z M48.8040678,68.0913559 L50.1762712,71.3242373 L49.7477966,71.7494915 L49.9961017,72.3342373 L51.9564407,71.5020339 L51.7083051,70.9174576 L51.0910169,70.9359322 L50.0430508,68.4664407 L50.3116949,68.7745763 L51.7945763,70.0689831 L52.5228814,69.719322 L52.6140678,67.7728814 L52.6069492,67.2401695 L53.7049153,69.8264407 L53.2561017,70.2605085 L53.5040678,70.8450847 L55.5537288,69.9752542 L55.3055932,69.3905085 L54.7022034,69.4032203 L53.33,66.1701695 L53.7376271,65.7535593 L53.4750847,65.1345763 L51.8386441,65.869661 L51.7164407,68.5842373 L49.7125424,66.7316949 L47.9525424,67.5191525 L48.2005085,68.1038983 L48.8040678,68.0913559 Z M45.4077966,71.0286441 L45.6352542,69.1759322 L46.5357627,70.800339 L45.4077966,71.0286441 Z M43.6344068,72.9654237 L43.7605085,73.5879661 L45.9723729,73.1405085 L45.8464407,72.5179661 L45.2337288,72.4284746 L45.3101695,71.8642373 L46.9357627,71.5352542 L47.2198305,72.0342373 L46.7105085,72.3432203 L46.8366102,72.9655932 L49.1655932,72.4945763 L49.039661,71.8720339 L48.4854237,71.7705085 L46.0333898,67.7533898 L44.8661017,68.0125424 L44.1276271,72.6523729 L43.6344068,72.9654237 Z M39.4589831,73.1033898 L39.4894915,73.7377966 L41.8930508,73.6223729 L41.8625424,72.9881356 L41.1650847,72.7971186 L41.0986441,71.4164407 L42.6437288,71.3420339 L42.6044068,70.5210169 L41.0594915,70.5952542 L40.9966102,69.2891525 L42.2057627,69.2310169 L42.4174576,69.7445763 L43.1115254,69.7111864 L43.0435593,68.2932203 L40.9537288,68.3935593 L39.2388136,68.5132203 L39.2691525,69.1476271 L39.8398305,69.3445763 L40.0079661,72.8525424 L39.4589831,73.1033898 Z M31.5054237,70.6179661 C31.2354237,72.0344068 31.6977966,72.7998305 33.1732203,73.0810169 C34.7515254,73.3820339 35.4401695,72.7222034 35.710339,71.3055932 L36.130339,69.1035593 L36.7227119,68.9883051 L36.8488136,68.3276271 L34.5810169,67.9332203 L34.4620339,68.5571186 L34.9925424,68.8866102 L34.5727119,71.0886441 C34.4074576,71.9547458 34.1588136,72.3410169 33.3808475,72.1925424 C32.6615254,72.0552542 32.4822034,71.6786441 32.6432203,70.8347458 L33.0840678,68.5225424 L33.6986441,68.4116949 L33.8245763,67.7510169 L31.5642373,67.3577966 L31.4452542,67.9818644 L31.9464407,68.3055932 L31.5054237,70.6179661 Z M26.8181356,70.0377966 L28.1159322,66.8147458 L28.7398305,67.0659322 C29.4191525,67.3394915 29.6466102,67.9144068 29.1777966,69.0789831 C28.6752542,70.3266102 28.0655932,70.540339 27.3932203,70.269661 L26.8181356,70.0377966 Z M25.1261017,69.6384746 L24.8888136,70.2276271 L27.0376271,71.0928814 C28.4447458,71.659661 29.7281356,71.0728814 30.3562712,69.5132203 C30.9842373,67.9537288 30.4955932,66.8062712 29.1094915,66.2479661 L28.4508475,65.9830508 L26.8427119,65.3757627 L26.6054237,65.9649153 L27.0416949,66.3820339 L25.729661,69.64 L25.1261017,69.6384746 Z M19.2554237,65.8238983 L18.8915254,66.3445763 L21.9538983,68.4849153 L22.9384746,67.0761017 L22.3564407,66.6694915 L21.7510169,67.2491525 L20.8137288,66.5940678 L22.8044068,63.7462712 L23.3920339,63.8833898 L23.7772881,63.3322034 L21.8877966,62.0572881 L21.5240678,62.5777966 L21.8549153,63.0827119 L19.8430508,65.9613559 L19.2554237,65.8238983 Z M16.7323729,63.5372881 L16.3091525,64.0108475 L18.0084746,65.5298305 L18.4316949,65.0562712 L18.1632203,64.5157627 L20.5037288,61.8971186 L21.0708475,62.1033898 L21.5191525,61.6020339 L19.7950847,60.1110169 L19.3716949,60.5845763 L19.6401695,61.1252542 L17.299661,63.7437288 L16.7323729,63.5372881 Z M13.2883051,59.6405085 L12.8062712,60.0540678 L15.3462712,63.0144068 L16.4916949,62.0315254 L16.0538983,61.5211864 L15.4769492,61.789661 L14.6059322,60.7744068 L15.6835593,59.8501695 L16.6664407,60.9955932 L17.2901695,60.4605085 L16.3072881,59.3149153 L17.2430508,58.5120339 L18.0459322,59.4477966 L17.7535593,59.9447458 L18.1915254,60.4552542 L19.2859322,59.5161017 L17.9235593,57.9283051 L16.7762712,56.6481356 L16.2940678,57.0616949 L16.4889831,57.6328814 L13.8233898,59.9198305 L13.2883051,59.6405085 Z M12.3791525,50.6159322 L9.12,53.7810169 L9.61542373,54.6854237 L12.5186441,54.0750847 L13.2274576,53.8913559 L10.5844068,56.4549153 L11.0942373,57.3855932 L15.5418644,56.4066102 L15.9969492,56.7708475 L16.5867797,56.4477966 L15.5311864,54.5979661 L14.9740678,54.9028814 L15.0466102,55.5022034 L12.3491525,56.1616949 L15.0076271,53.5638983 L14.470678,52.7079661 L10.8745763,53.4845763 L12.9254237,51.6288136 L13.3840678,51.999661 L13.9738983,51.6764407 L12.8750847,49.7479661 L12.3179661,50.0532203 L12.3791525,50.6159322 Z M9.88745763,35.9888136 L8.86135593,35.8484746 C8.35118644,39.5864407 8.52186441,43.359661 9.36847458,47.0632203 C9.51457627,47.7023729 9.69016949,48.3679661 9.89016949,49.0411864 L10.8828814,48.7457627 C10.6889831,48.0940678 10.5191525,47.450339 10.3779661,46.8325424 C9.55932203,43.2510169 9.39423729,39.6025424 9.88745763,35.9888136 Z M12.1955932,27.5622034 L11.9562712,28.0964407 L9.68779661,27.080678 L10.0489831,26.2742373 C10.3559322,25.5888136 10.9876271,25.4479661 11.6430508,25.7413559 C12.3889831,26.0754237 12.57,26.7252542 12.1955932,27.5622034 Z M12.1410169,24.0884746 C10.8305085,23.5016949 9.61762712,24.0479661 8.92694915,25.590339 L8.49830508,26.5481356 L7.51033898,28.889322 L8.34711864,29.2640678 L8.98813559,28.6435593 L13.7769492,30.7876271 L13.690339,31.6566102 L14.5674576,32.049322 L15.9442373,28.9744068 L15.0672881,28.5818644 L14.4764407,29.2250847 L13.1357627,28.6245763 L13.3749153,28.090339 C14.1966102,26.2554237 13.8347458,24.8467797 12.1410169,24.0884746 Z M15.6715254,20.6711864 L14.2425424,19.5042373 L15.3744068,18.1184746 L16.190678,18.4284746 L16.840339,17.6328814 L15.1891525,16.2845763 L13.2332203,18.6801695 L11.6691525,20.6828814 L12.3789831,21.2625424 L13.1598305,20.830678 L17.2237288,24.1491525 L16.9137288,24.9654237 L17.6581356,25.5728814 L21.3047458,21.1069492 L19.5935593,19.709661 L18.9510169,20.4969492 L19.500339,21.2735593 L18.2638983,22.7877966 L16.6125424,21.4394915 L18.0237288,19.7113559 L17.0825424,18.9427119 L15.6715254,20.6711864 Z M22.9988136,19.7069492 L25.8616949,17.6330508 L25.2977966,16.8547458 L24.3932203,17.1689831 L21.3149153,12.919661 L22.1647458,12.3038983 L23.0040678,12.9916949 L23.8362712,12.3889831 L22.4557627,10.4835593 L17.2862712,14.269322 L18.6472881,16.1479661 L19.470339,15.5515254 L19.0783051,14.5398305 L19.9281356,13.9238983 L23.0064407,18.1732203 L22.4349153,18.9284746 L22.9988136,19.7069492 Z M32.0223729,12.2072881 C31.0820339,9.78779661 27.7964407,11.61 27.3322034,10.4155932 C27.1722034,10.0037288 27.4086441,9.54440678 28.139661,9.26033898 C28.5822034,9.08830508 29.1057627,9.06271186 29.1057627,9.06271186 L29.7030508,9.83779661 L30.650339,9.46966102 L29.9735593,7.57559322 C29.9735593,7.57559322 28.7118644,7.5920339 27.5483051,8.04423729 C26.0555932,8.62440678 25.229322,9.82254237 25.7813559,11.2433898 C26.769661,13.7866102 30.0416949,11.8986441 30.51,13.1035593 C30.7220339,13.6489831 30.2472881,14.1652542 29.5883051,14.4213559 C28.9911864,14.6537288 28.4952542,14.5976271 28.4952542,14.5976271 L28.0045763,13.7927119 L26.9544068,14.2008475 L27.7225424,16.1777966 C27.7225424,16.1777966 29.0072881,16.1288136 30.1708475,15.6766102 C31.7564407,15.060339 32.6227119,13.7520339 32.0223729,12.2072881 Z M31.0347458,37.6342373 C29.5937288,36.330678 27.5711864,36.2188136 26.8388136,37.0283051 C26.1066102,37.8381356 26.4208475,39.8391525 27.8620339,41.1423729 C29.3032203,42.4457627 30.9683051,42.9528814 32.0577966,41.7483051 C33.1472881,40.5433898 32.4759322,38.9376271 31.0347458,37.6342373 Z M37.0401695,32.4015254 C36.1337288,30.2530508 33.9908475,29.1050847 32.7837288,29.6144068 C31.5766102,30.1237288 30.9033898,32.459661 31.8098305,34.6083051 C32.7162712,36.7567797 34.2705085,38.1532203 36.0662712,37.3952542 C37.8625424,36.6374576 37.9466102,34.55 37.0401695,32.4015254 Z M44.4215254,31.9489831 C44.3113559,29.7564407 42.7852542,28.0513559 41.5535593,28.1130508 C40.3218644,28.1750847 38.9744068,30.0245763 39.0845763,32.2167797 C39.1947458,34.4091525 40.119661,36.1444068 41.9523729,36.0525424 C43.7849153,35.960678 44.5315254,34.1410169 44.4215254,31.9489831 Z M48.4672881,42.6484746 C47.8881356,40.1149153 45.7898305,38.4340678 43.3698305,38.9871186 C41.7166102,39.3650847 41.4957627,41.020339 40.2894915,41.2961017 C39.0833898,41.5718644 37.9335593,40.229661 36.2798305,40.6077966 C33.8601695,41.160678 32.7008475,43.5864407 33.2798305,46.12 C33.4354237,46.800678 33.7,47.4291525 34.0440678,48.0088136 C34.0440678,48.0088136 34.3554237,48.5313559 34.5879661,48.8049153 C37.3430508,52.3550847 41.7976271,53.4642373 41.7976271,53.4642373 C42.4689831,53.6313559 43.4537288,53.4064407 43.9855932,52.9638983 C43.9855932,52.9638983 47.5162712,50.029661 48.4552542,45.6354237 C48.4552542,45.6354237 48.5725424,45.0516949 48.5994915,44.6816949 C48.6479661,44.009322 48.6228814,43.329322 48.4672881,42.6484746 Z M50.9633898,35.8179661 C51.7116949,33.9776271 51.1123729,31.9950847 50.0783051,31.5747458 C49.0442373,31.1545763 47.2313559,32.1559322 46.4832203,33.9967797 C45.7350847,35.8371186 45.83,37.6144068 47.3684746,38.2398305 C48.9069492,38.8652542 50.2152542,37.6584746 50.9633898,35.8179661 Z M60.6245763,35.3476271 C63.2342373,46.7642373 56.0691525,58.1754237 44.6523729,60.7852542 C33.2357627,63.3945763 21.8245763,56.229322 19.2150847,44.8127119 C16.6055932,33.3959322 23.770678,21.9849153 35.1872881,19.3754237 C46.6040678,16.7659322 58.0152542,23.9308475 60.6245763,35.3476271 Z M34.8411864,17.8611864 C22.5894915,20.6615254 14.900339,32.9072881 17.7008475,45.1588136 C20.5011864,57.4105085 32.7469492,65.0998305 44.9984746,62.2994915 C57.250339,59.4989831 64.939322,47.2530508 62.1389831,35.0015254 C59.3384746,22.75 47.0928814,15.0608475 34.8411864,17.8611864 Z M42.2908475,9.7520339 C42.2542373,11.739322 41.5238983,12.3886441 40.4530508,12.3688136 L39.5366102,12.3518644 L39.6328814,7.16220339 L40.6264407,7.18050847 C41.7086441,7.20084746 42.3254237,7.89694915 42.2908475,9.7520339 Z M44.1467797,9.73101695 C44.1932203,7.24661017 42.9144068,5.91966102 40.7059322,5.87881356 L39.6571186,5.85932203 L37.1162712,5.86728814 L37.099322,6.78372881 L37.9213559,7.13050847 L37.8240678,12.3754237 L36.9910169,12.6359322 L36.9732203,13.5964407 L40.3961017,13.6598305 C42.6372881,13.7015254 44.1010169,12.2155932 44.1467797,9.73101695 Z M51.9435593,10.2127119 L52.5674576,8.17457627 L49.6101695,7.26949153 L47.1649153,6.57881356 L46.8967797,7.45542373 L47.5916949,8.01474576 L46.0567797,13.0311864 L45.1837288,13.0527119 L44.9023729,13.9718644 L50.4152542,15.6588136 L51.0618644,13.5466102 L50.0905085,13.2494915 L49.5789831,14.0516949 L47.7098305,13.4794915 L48.3333898,11.4411864 L50.4669492,12.0940678 L50.8225424,10.9323729 L48.6891525,10.2794915 L49.2288136,8.51576271 L50.9398305,9.03932203 L50.9613559,9.91237288 L51.9435593,10.2127119 Z M57.7372881,12.0174576 L58.2398305,11.1857627 L55.3281356,9.49101695 L54.8538983,10.2755932 L55.3918644,10.9874576 L52.6788136,15.4776271 L51.8272881,15.2855932 L51.3301695,16.1081356 L56.0566102,18.9638983 L57.3701695,16.7894915 L56.4723729,16.2467797 L55.6189831,17.1894915 L54.1727119,16.3155932 L56.8571186,11.8728814 L57.7372881,12.0174576 Z M63.8777966,16.9822034 L64.5418644,16.2728814 L62.0450847,14.0113559 L61.4186441,14.6805085 L61.7967797,15.4883051 L58.2120339,19.3179661 L57.4184746,18.9537288 L56.7616949,19.6550847 L59.2211864,21.9569492 L59.8776271,21.2554237 L59.4613559,20.4879661 L63.0466102,16.6583051 L63.8777966,16.9822034 Z M70.8605085,35.1050847 C70.7486441,34.4128814 70.6176271,33.7371186 70.4713559,33.0969492 C69.6249153,29.3933898 68.139322,25.920678 66.0559322,22.7755932 L65.1925424,23.3476271 C67.2067797,26.3884746 68.6432203,29.7461017 69.4616949,33.3276271 C69.6032203,33.9461017 69.7298305,34.599661 69.8381356,35.2701695 L70.8605085,35.1050847 Z M69.2949153,40.3984746 L72.8069492,40.3623729 L73.0383051,41.07 L73.6735593,41.0635593 L73.6469492,38.4855932 L73.0120339,38.4922034 L72.7950847,39.2044068 L69.2832203,39.240339 L69.2759322,38.530339 L69.9838983,38.3364407 L69.9767797,37.6415254 L68.3701695,37.6579661 L68.4147458,41.9916949 L70.0211864,41.9752542 L70.0142373,41.2879661 L69.3023729,41.1083051 L69.2949153,40.3984746 Z M71.4466102,46.4825424 L72.8674576,46.6815254 C72.8674576,46.6815254 73.2627119,45.9069492 73.3798305,45.070678 C73.5394915,43.9310169 73.0528814,42.9876271 71.9427119,42.8322034 C70.2038983,42.5886441 70.1949153,45.1301695 69.3366102,45.0098305 C69.040339,44.9684746 68.8472881,44.6772881 68.9208475,44.1518644 C68.9655932,43.8335593 69.1232203,43.5161017 69.1232203,43.5161017 L69.7781356,43.419322 L69.8735593,42.7383051 L68.5316949,42.5127119 C68.5316949,42.5127119 68.1249153,43.2632203 68.0077966,44.099322 C67.8574576,45.1725424 68.2918644,46.0557627 69.3133898,46.1988136 C71.1410169,46.4547458 71.1067797,43.899661 71.9725424,44.0210169 C72.3647458,44.0759322 72.5128814,44.5267797 72.4464407,45.000339 C72.3864407,45.4294915 72.189661,45.7037288 72.189661,45.7037288 L71.5523729,45.7277966 L71.4466102,46.4825424 Z M71.4044068,49.5357627 L71.4757627,50.1350847 L72.089322,50.2994915 L72.6791525,48.0977966 L72.0655932,47.9337288 L71.7038983,48.4167797 L68.3116949,47.5079661 L68.240339,46.9084746 L67.590678,46.7345763 L67.0367797,48.9454237 L67.6501695,49.11 L68.0118644,48.6267797 L71.4044068,49.5357627 Z M69.8218644,53.5781356 L68.5040678,53.0105085 L68.6757627,52.6123729 C68.9418644,51.9949153 69.2857627,51.8010169 69.7867797,52.0171186 C70.1640678,52.179661 70.2742373,52.5283051 70.0672881,53.0086441 L69.8218644,53.5781356 Z M67.9550847,52.3018644 L67.7835593,52.7 L66.6308475,52.2030508 L66.8822034,51.6198305 C67.0240678,51.290339 67.2913559,51.1045763 67.6481356,51.2583051 C68.0735593,51.4416949 68.1710169,51.8008475 67.9550847,52.3018644 Z M69.9652542,55.5113559 L70.9055932,53.3291525 C71.3847458,52.2172881 71.2625424,51.3674576 70.2538983,50.9327119 C69.7252542,50.7050847 69.1961017,50.8757627 68.7328814,51.4410169 C68.7950847,50.8247458 68.5525424,50.3867797 67.9555932,50.129661 C67.1459322,49.780678 66.5023729,50.2357627 66.1177966,51.1276271 L65.8072881,51.8481356 L65.1615254,53.4413559 L65.7447458,53.6927119 L66.1725424,53.2667797 L69.3977966,54.6566102 L69.3818644,55.2598305 L69.9652542,55.5113559 Z M48.4677966,77.4774576 C27.8467797,82.1908475 7.23576271,69.2489831 2.52237288,48.6279661 C-2.19101695,28.0071186 10.7510169,7.39610169 31.3718644,2.68271186 C51.9927119,-2.03067797 72.6038983,10.9113559 77.3171186,31.5322034 C82.0305085,52.1530508 69.0888136,72.7642373 48.4677966,77.4774576 Z M78.8315254,31.1861017 C73.9272881,9.73016949 52.4815254,-3.73576271 31.0257627,1.16847458 C9.56983051,6.07271186 -3.89610169,27.5183051 1.00813559,48.9740678 C5.91237288,70.4301695 27.3579661,83.8959322 48.8138983,78.9918644 C70.2698305,74.0874576 83.7357627,52.6418644 78.8315254,31.1861017 L78.8315254,31.1861017 Z" id="Fill-1" fill="#192D49" mask="url(#mask-2)"></path>
                </g>
            </g>
        </g>
    </g>
</svg>